# xmcd
#
# Track frame offsets: 
#        150
#        21775
#        36123
#        48826
#        70903
#        96286
#        116115
#        135344
#        146323
#        158661
#        177827
#        194982
#        217367
#        233419
#
# Disc length: 3581 seconds
#
# Revision: 2
# Processed by: cddbd v1.5.2PL0 Copyright (c) Steve Scherf et al.
# Submitted via: ExactAudioCopyFreeDBPlugin 1.0
#
DISCID=c50dfb0e
DTITLE=Lollo Meier and André Donni - Hondarribia
DYEAR=2005
DGENRE=Jazz
TTITLE0=Just one of those things
TTITLE1=Melody for "Le Quecumbar"
TTITLE2=Daphné
TTITLE3=Lentement Mademoiselle
TTITLE4=I won't dance
TTITLE5=I surrender dear
TTITLE6=I've found a new baby
TTITLE7=La route de Paris
TTITLE8=China boy
TTITLE9=Melody au crépuscule
TTITLE10=Minor swing
TTITLE11=Nuages
TTITLE12=Hondarribia
TTITLE13=Libertango
EXTD=YEAR: 2005
EXTT0=
EXTT1=
EXTT2=
EXTT3=
EXTT4=
EXTT5=
EXTT6=
EXTT7=
EXTT8=
EXTT9=
EXTT10=
EXTT11=
EXTT12=
EXTT13=
PLAYORDER=
